<svg width="19" height="19" viewBox="0 0 19 19" fill="none" xmlns="http://www.w3.org/2000/svg">
<g opacity="0.7">
<path d="M8.3672 0C3.75365 0 0 3.75365 0 8.3672C0 12.981 3.75365 16.7344 8.3672 16.7344C12.981 16.7344 16.7344 12.981 16.7344 8.3672C16.7344 3.75365 12.981 0 8.3672 0ZM8.3672 15.1897C4.60531 15.1897 1.54471 12.1291 1.54471 8.36724C1.54471 4.60535 4.60531 1.54471 8.3672 1.54471C12.1291 1.54471 15.1897 4.60531 15.1897 8.3672C15.1897 12.1291 12.1291 15.1897 8.3672 15.1897Z" fill="#1D7874"/>
<path d="M18.7737 17.6816L14.3455 13.2534C14.0438 12.9516 13.5551 12.9516 13.2534 13.2534C12.9517 13.5548 12.9517 14.044 13.2534 14.3455L17.6816 18.7737C17.8324 18.9245 18.0299 19 18.2277 19C18.4251 19 18.6228 18.9245 18.7737 18.7737C19.0755 18.4722 19.0755 17.983 18.7737 17.6816Z" fill="#1D7874"/>
</g>
</svg>
