<svg width="21" height="21" viewBox="0 0 21 21" fill="none" xmlns="http://www.w3.org/2000/svg">
<path d="M7.48372 6.37708L9.51559 4.34521V15.0937C9.51559 15.3548 9.6193 15.6052 9.80391 15.7898C9.98851 15.9744 10.2389 16.0781 10.5 16.0781C10.761 16.0781 11.0114 15.9744 11.196 15.7898C11.3806 15.6052 11.4843 15.3548 11.4843 15.0937V4.34521L13.5162 6.37708C13.6075 6.4689 13.7161 6.5418 13.8356 6.5916C13.9551 6.64139 14.0833 6.66712 14.2128 6.6673C14.3423 6.66747 14.4706 6.6421 14.5902 6.59262C14.7099 6.54315 14.8187 6.47055 14.9102 6.37898C15.0018 6.28741 15.0744 6.17868 15.1239 6.05901C15.1733 5.93934 15.1987 5.81108 15.1985 5.68158C15.1984 5.55209 15.1726 5.4239 15.1228 5.30436C15.073 5.18483 15.0001 5.07629 14.9083 4.98497L11.196 1.27265C11.1046 1.18124 10.9961 1.10872 10.8767 1.05925C10.7572 1.00978 10.6292 0.984314 10.5 0.984314C10.3707 0.984314 10.2427 1.00978 10.1232 1.05925C10.0038 1.10872 9.8953 1.18124 9.80389 1.27265L6.0916 4.98497C5.99979 5.07629 5.92689 5.18483 5.87709 5.30436C5.82729 5.4239 5.80157 5.55209 5.80139 5.68158C5.80122 5.81108 5.82659 5.93934 5.87607 6.05901C5.92554 6.17868 5.99814 6.28741 6.08971 6.37898C6.18128 6.47055 6.29001 6.54315 6.40968 6.59262C6.52935 6.6421 6.65761 6.66747 6.78711 6.6673C6.9166 6.66712 7.04479 6.64139 7.16432 6.5916C7.28386 6.5418 7.3924 6.4689 7.48372 6.37708V6.37708Z" fill="white"/>
<path d="M19.0312 9.51562C18.7702 9.51563 18.5198 9.61934 18.3352 9.80394C18.1506 9.98855 18.0469 10.2389 18.0469 10.5V18.0469H2.95312V10.5C2.95312 10.2389 2.84941 9.98855 2.66481 9.80394C2.4802 9.61934 2.22982 9.51563 1.96875 9.51562C1.70768 9.51563 1.4573 9.61934 1.27269 9.80394C1.08809 9.98855 0.984375 10.2389 0.984375 10.5V18.375C0.984375 18.8101 1.15723 19.2274 1.4649 19.5351C1.77258 19.8428 2.18988 20.0156 2.625 20.0156H18.375C18.8101 20.0156 19.2274 19.8428 19.5351 19.5351C19.8428 19.2274 20.0156 18.8101 20.0156 18.375V10.5C20.0156 10.2389 19.9119 9.98855 19.7273 9.80394C19.5427 9.61934 19.2923 9.51563 19.0312 9.51562Z" fill="white"/>
</svg>
